<?xml version="1.0" encoding="UTF-8"?><svg xmlns="http://www.w3.org/2000/svg" xmlns:xlink="http://www.w3.org/1999/xlink" fill-opacity="1" color-rendering="auto" color-interpolation="auto" text-rendering="auto" stroke="black" stroke-linecap="square" width="462" stroke-miterlimit="10" shape-rendering="auto" stroke-opacity="1" fill="black" stroke-dasharray="none" font-weight="normal" stroke-width="1" height="230" font-family="'Dialog'" font-style="normal" stroke-linejoin="miter" font-size="12px" stroke-dashoffset="0" image-rendering="auto">
  <!--Generated by ySVG 2.5-->
  <defs id="genericDefs"/>
  <g>
    <defs id="defs1">
      <linearGradient x1="181" gradientUnits="userSpaceOnUse" x2="261" y1="67" y2="107" id="linearGradient1" spreadMethod="reflect">
        <stop stop-opacity="1" stop-color="rgb(232,238,247)" offset="0%"/>
        <stop stop-opacity="1" stop-color="rgb(183,201,227)" offset="100%"/>
      </linearGradient>
      <linearGradient x1="291" gradientUnits="userSpaceOnUse" x2="393" y1="107" y2="147" id="linearGradient2" spreadMethod="reflect">
        <stop stop-opacity="1" stop-color="rgb(232,238,247)" offset="0%"/>
        <stop stop-opacity="1" stop-color="rgb(183,201,227)" offset="100%"/>
      </linearGradient>
      <linearGradient x1="302" gradientUnits="userSpaceOnUse" x2="382" y1="227" y2="267" id="linearGradient3" spreadMethod="reflect">
        <stop stop-opacity="1" stop-color="rgb(232,238,247)" offset="0%"/>
        <stop stop-opacity="1" stop-color="rgb(183,201,227)" offset="100%"/>
      </linearGradient>
      <linearGradient x1="423" gradientUnits="userSpaceOnUse" x2="503" y1="107" y2="147" id="linearGradient4" spreadMethod="reflect">
        <stop stop-opacity="1" stop-color="rgb(232,238,247)" offset="0%"/>
        <stop stop-opacity="1" stop-color="rgb(183,201,227)" offset="100%"/>
      </linearGradient>
      <linearGradient x1="533" gradientUnits="userSpaceOnUse" x2="613" y1="67" y2="107" id="linearGradient5" spreadMethod="reflect">
        <stop stop-opacity="1" stop-color="rgb(232,238,247)" offset="0%"/>
        <stop stop-opacity="1" stop-color="rgb(183,201,227)" offset="100%"/>
      </linearGradient>
      <linearGradient x1="533" gradientUnits="userSpaceOnUse" x2="613" y1="147" y2="187" id="linearGradient6" spreadMethod="reflect">
        <stop stop-opacity="1" stop-color="rgb(232,238,247)" offset="0%"/>
        <stop stop-opacity="1" stop-color="rgb(183,201,227)" offset="100%"/>
      </linearGradient>
      <linearGradient x1="533" gradientUnits="userSpaceOnUse" x2="613" y1="227" y2="267" id="linearGradient7" spreadMethod="reflect">
        <stop stop-opacity="1" stop-color="rgb(232,238,247)" offset="0%"/>
        <stop stop-opacity="1" stop-color="rgb(183,201,227)" offset="100%"/>
      </linearGradient>
      <clipPath clipPathUnits="userSpaceOnUse" id="clipPath1">
        <path d="M0 0 L462 0 L462 230 L0 230 L0 0 Z"/>
      </clipPath>
      <clipPath clipPathUnits="userSpaceOnUse" id="clipPath2">
        <path d="M166 52 L628 52 L628 282 L166 282 L166 52 Z"/>
      </clipPath>
    </defs>
    <g fill="white" text-rendering="geometricPrecision" shape-rendering="geometricPrecision" transform="translate(-166,-52)" stroke="white">
      <rect x="166" width="462" height="230" y="52" clip-path="url(#clipPath2)" stroke="none"/>
    </g>
    <g fill="url(#linearGradient1)" text-rendering="geometricPrecision" shape-rendering="geometricPrecision" transform="matrix(1,0,0,1,-166,-52)" stroke="url(#linearGradient1)">
      <path d="M181 67 L261 67 L261 107 L181 107 Z" stroke="none" clip-path="url(#clipPath2)"/>
    </g>
    <g text-rendering="geometricPrecision" stroke-miterlimit="1.45" shape-rendering="geometricPrecision" transform="matrix(1,0,0,1,-166,-52)" stroke-linecap="butt">
      <path fill="none" d="M181 67 L261 67 L261 107 L181 107 Z" clip-path="url(#clipPath2)"/>
      <text x="183.5645" xml:space="preserve" y="91.1543" clip-path="url(#clipPath2)" font-family="sans-serif" stroke="none">USB charger</text>
    </g>
    <g fill="url(#linearGradient2)" text-rendering="geometricPrecision" shape-rendering="geometricPrecision" transform="matrix(1,0,0,1,-166,-52)" stroke="url(#linearGradient2)">
      <path d="M291 107 L393 107 L393 147 L291 147 Z" stroke="none" clip-path="url(#clipPath2)"/>
    </g>
    <g text-rendering="geometricPrecision" stroke-miterlimit="1.45" shape-rendering="geometricPrecision" transform="matrix(1,0,0,1,-166,-52)" stroke-linecap="butt">
      <path fill="none" d="M291 107 L393 107 L393 147 L291 147 Z" clip-path="url(#clipPath2)"/>
      <text x="296.4082" xml:space="preserve" y="124.1699" clip-path="url(#clipPath2)" font-family="sans-serif" stroke="none">Buck converter</text>
      <text x="313.2393" xml:space="preserve" y="138.1387" clip-path="url(#clipPath2)" font-family="sans-serif" stroke="none">5V-&gt;3.3V</text>
    </g>
    <g fill="url(#linearGradient3)" text-rendering="geometricPrecision" shape-rendering="geometricPrecision" transform="matrix(1,0,0,1,-166,-52)" stroke="url(#linearGradient3)">
      <path d="M302 227 L382 227 L382 267 L302 267 Z" stroke="none" clip-path="url(#clipPath2)"/>
    </g>
    <g text-rendering="geometricPrecision" stroke-miterlimit="1.45" shape-rendering="geometricPrecision" transform="matrix(1,0,0,1,-166,-52)" stroke-linecap="butt">
      <path fill="none" d="M302 227 L382 227 L382 267 L302 267 Z" clip-path="url(#clipPath2)"/>
      <text x="319.6963" xml:space="preserve" y="251.1543" clip-path="url(#clipPath2)" font-family="sans-serif" stroke="none">ESP12F</text>
    </g>
    <g fill="url(#linearGradient4)" text-rendering="geometricPrecision" shape-rendering="geometricPrecision" transform="matrix(1,0,0,1,-166,-52)" stroke="url(#linearGradient4)">
      <path d="M423 107 L503 107 L503 147 L423 147 Z" stroke="none" clip-path="url(#clipPath2)"/>
    </g>
    <g text-rendering="geometricPrecision" stroke-miterlimit="1.45" shape-rendering="geometricPrecision" transform="matrix(1,0,0,1,-166,-52)" stroke-linecap="butt">
      <path fill="none" d="M423 107 L503 107 L503 147 L423 147 Z" clip-path="url(#clipPath2)"/>
      <text x="443.1191" xml:space="preserve" y="131.1543" clip-path="url(#clipPath2)" font-family="sans-serif" stroke="none">Relays</text>
    </g>
    <g fill="url(#linearGradient5)" text-rendering="geometricPrecision" shape-rendering="geometricPrecision" transform="matrix(1,0,0,1,-166,-52)" stroke="url(#linearGradient5)">
      <path d="M533 67 L613 67 L613 107 L533 107 Z" stroke="none" clip-path="url(#clipPath2)"/>
    </g>
    <g text-rendering="geometricPrecision" stroke-miterlimit="1.45" shape-rendering="geometricPrecision" transform="matrix(1,0,0,1,-166,-52)" stroke-linecap="butt">
      <path fill="none" d="M533 67 L613 67 L613 107 L533 107 Z" clip-path="url(#clipPath2)"/>
      <text x="552.4336" xml:space="preserve" y="91.1543" clip-path="url(#clipPath2)" font-family="sans-serif" stroke="none">Sensor</text>
    </g>
    <g fill="url(#linearGradient6)" text-rendering="geometricPrecision" shape-rendering="geometricPrecision" transform="matrix(1,0,0,1,-166,-52)" stroke="url(#linearGradient6)">
      <path d="M533 147 L613 147 L613 187 L533 187 Z" stroke="none" clip-path="url(#clipPath2)"/>
    </g>
    <g text-rendering="geometricPrecision" stroke-miterlimit="1.45" shape-rendering="geometricPrecision" transform="matrix(1,0,0,1,-166,-52)" stroke-linecap="butt">
      <path fill="none" d="M533 147 L613 147 L613 187 L533 187 Z" clip-path="url(#clipPath2)"/>
      <text x="555.9258" xml:space="preserve" y="171.1543" clip-path="url(#clipPath2)" font-family="sans-serif" stroke="none">Pump</text>
    </g>
    <g fill="url(#linearGradient7)" text-rendering="geometricPrecision" shape-rendering="geometricPrecision" transform="matrix(1,0,0,1,-166,-52)" stroke="url(#linearGradient7)">
      <path d="M533 227 L613 227 L613 267 L533 267 Z" stroke="none" clip-path="url(#clipPath2)"/>
    </g>
    <g text-rendering="geometricPrecision" stroke-miterlimit="1.45" shape-rendering="geometricPrecision" transform="matrix(1,0,0,1,-166,-52)" stroke-linecap="butt">
      <path fill="none" d="M533 227 L613 227 L613 267 L533 267 Z" clip-path="url(#clipPath2)"/>
      <text x="535.4561" xml:space="preserve" y="251.1543" clip-path="url(#clipPath2)" font-family="sans-serif" stroke="none">Nebulisators</text>
    </g>
    <g stroke-linecap="butt" transform="matrix(1,0,0,1,-166,-52)" fill="red" text-rendering="geometricPrecision" shape-rendering="geometricPrecision" stroke="red" stroke-width="2" stroke-miterlimit="1.45">
      <path fill="none" d="M261.0281 87 L342 87 L342 106.9609" clip-path="url(#clipPath2)"/>
    </g>
    <g stroke-linecap="butt" transform="matrix(1,0,0,1,-166,-52)" fill="rgb(153,204,0)" text-rendering="geometricPrecision" shape-rendering="geometricPrecision" stroke="rgb(153,204,0)" stroke-width="2" stroke-miterlimit="1.45">
      <path fill="none" d="M342 147.0098 L342 227.0312" clip-path="url(#clipPath2)"/>
      <rect x="326.3535" y="152" clip-path="url(#clipPath2)" fill="white" width="31.293" height="17.9688" stroke="none"/>
      <text x="328.3535" y="165.1387" clip-path="url(#clipPath2)" font-family="sans-serif" stroke="none" stroke-width="1" xml:space="preserve">3.3V</text>
      <path fill="none" d="M261.0281 87 L463 87 L463 106.9609" clip-path="url(#clipPath2)" stroke="red"/>
      <path fill="none" d="M261.0039 87 L532.9722 87" clip-path="url(#clipPath2)" stroke="red"/>
      <rect x="266" y="78.0156" clip-path="url(#clipPath2)" fill="white" width="19.8438" height="17.9688" stroke="none"/>
    </g>
    <g stroke-linecap="butt" transform="matrix(1,0,0,1,-166,-52)" fill="red" text-rendering="geometricPrecision" font-family="sans-serif" shape-rendering="geometricPrecision" stroke="red" stroke-miterlimit="1.45">
      <text x="268" xml:space="preserve" y="91.1543" clip-path="url(#clipPath2)" stroke="none">5V</text>
      <path fill="none" d="M463 146.9609 L463 167 L533.0122 167" stroke-width="2" clip-path="url(#clipPath2)"/>
      <path fill="none" d="M463 147.0098 L463 247 L533.0122 247" stroke-width="2" clip-path="url(#clipPath2)"/>
    </g>
  </g>
</svg>
