<?xml version="1.0" encoding="UTF-8"?><svg xmlns="http://www.w3.org/2000/svg" xmlns:xlink="http://www.w3.org/1999/xlink" fill-opacity="1" color-rendering="auto" color-interpolation="auto" text-rendering="auto" stroke="black" stroke-linecap="square" width="911" stroke-miterlimit="10" shape-rendering="auto" stroke-opacity="1" fill="black" stroke-dasharray="none" font-weight="normal" stroke-width="1" height="1104" font-family="'Dialog'" font-style="normal" stroke-linejoin="miter" font-size="12px" stroke-dashoffset="0" image-rendering="auto">
  <!--Generated by ySVG 2.5-->
  <defs id="genericDefs"/>
  <g>
    <defs id="defs1">
      <linearGradient x1="600" gradientUnits="userSpaceOnUse" x2="680" y1="50" y2="90" id="linearGradient1" spreadMethod="reflect">
        <stop stop-opacity="1" stop-color="rgb(232,238,247)" offset="0%"/>
        <stop stop-opacity="1" stop-color="rgb(183,201,227)" offset="100%"/>
      </linearGradient>
      <linearGradient x1="567" gradientUnits="userSpaceOnUse" x2="713" y1="129" y2="209" id="linearGradient2" spreadMethod="reflect">
        <stop stop-opacity="1" stop-color="rgb(232,238,247)" offset="0%"/>
        <stop stop-opacity="1" stop-color="rgb(183,201,227)" offset="100%"/>
      </linearGradient>
      <linearGradient x1="701" gradientUnits="userSpaceOnUse" x2="993" y1="205" y2="251" id="linearGradient3" spreadMethod="reflect">
        <stop stop-opacity="1" stop-color="rgb(232,238,247)" offset="0%"/>
        <stop stop-opacity="1" stop-color="rgb(183,201,227)" offset="100%"/>
      </linearGradient>
      <linearGradient x1="292" gradientUnits="userSpaceOnUse" x2="562" y1="205" y2="251" id="linearGradient4" spreadMethod="reflect">
        <stop stop-opacity="1" stop-color="rgb(232,238,247)" offset="0%"/>
        <stop stop-opacity="1" stop-color="rgb(183,201,227)" offset="100%"/>
      </linearGradient>
      <linearGradient x1="579" gradientUnits="userSpaceOnUse" x2="701" y1="290.0641" y2="336.0641" id="linearGradient5" spreadMethod="reflect">
        <stop stop-opacity="1" stop-color="rgb(232,238,247)" offset="0%"/>
        <stop stop-opacity="1" stop-color="rgb(183,201,227)" offset="100%"/>
      </linearGradient>
      <linearGradient x1="551" gradientUnits="userSpaceOnUse" x2="729" y1="391.0641" y2="477.0641" id="linearGradient6" spreadMethod="reflect">
        <stop stop-opacity="1" stop-color="rgb(232,238,247)" offset="0%"/>
        <stop stop-opacity="1" stop-color="rgb(183,201,227)" offset="100%"/>
      </linearGradient>
      <linearGradient x1="776" gradientUnits="userSpaceOnUse" x2="918" y1="473.7516" y2="519.7516" id="linearGradient7" spreadMethod="reflect">
        <stop stop-opacity="1" stop-color="rgb(232,238,247)" offset="0%"/>
        <stop stop-opacity="1" stop-color="rgb(183,201,227)" offset="100%"/>
      </linearGradient>
      <linearGradient x1="551" gradientUnits="userSpaceOnUse" x2="729" y1="624.0961" y2="710.0961" id="linearGradient8" spreadMethod="reflect">
        <stop stop-opacity="1" stop-color="rgb(232,238,247)" offset="0%"/>
        <stop stop-opacity="1" stop-color="rgb(183,201,227)" offset="100%"/>
      </linearGradient>
      <linearGradient x1="600" gradientUnits="userSpaceOnUse" x2="680" y1="532.0641" y2="572.0641" id="linearGradient9" spreadMethod="reflect">
        <stop stop-opacity="1" stop-color="rgb(232,238,247)" offset="0%"/>
        <stop stop-opacity="1" stop-color="rgb(183,201,227)" offset="100%"/>
      </linearGradient>
      <linearGradient x1="998" gradientUnits="userSpaceOnUse" x2="1140" y1="837.0961" y2="883.0961" id="linearGradient10" spreadMethod="reflect">
        <stop stop-opacity="1" stop-color="rgb(232,238,247)" offset="0%"/>
        <stop stop-opacity="1" stop-color="rgb(183,201,227)" offset="100%"/>
      </linearGradient>
      <linearGradient x1="726" gradientUnits="userSpaceOnUse" x2="968" y1="699.0961" y2="807.0961" id="linearGradient11" spreadMethod="reflect">
        <stop stop-opacity="1" stop-color="rgb(232,238,247)" offset="0%"/>
        <stop stop-opacity="1" stop-color="rgb(183,201,227)" offset="100%"/>
      </linearGradient>
      <linearGradient x1="757" gradientUnits="userSpaceOnUse" x2="937" y1="837.0961" y2="883.0961" id="linearGradient12" spreadMethod="reflect">
        <stop stop-opacity="1" stop-color="rgb(232,238,247)" offset="0%"/>
        <stop stop-opacity="1" stop-color="rgb(183,201,227)" offset="100%"/>
      </linearGradient>
      <linearGradient x1="534" gradientUnits="userSpaceOnUse" x2="746" y1="913.0961" y2="953.0961" id="linearGradient13" spreadMethod="reflect">
        <stop stop-opacity="1" stop-color="rgb(232,238,247)" offset="0%"/>
        <stop stop-opacity="1" stop-color="rgb(183,201,227)" offset="100%"/>
      </linearGradient>
      <linearGradient x1="535.9375" gradientUnits="userSpaceOnUse" x2="744.0625" y1="998.3141" y2="1038.3141" id="linearGradient14" spreadMethod="reflect">
        <stop stop-opacity="1" stop-color="rgb(232,238,247)" offset="0%"/>
        <stop stop-opacity="1" stop-color="rgb(183,201,227)" offset="100%"/>
      </linearGradient>
      <linearGradient x1="557.8125" gradientUnits="userSpaceOnUse" x2="722.1875" y1="1083.532" y2="1123.532" id="linearGradient15" spreadMethod="reflect">
        <stop stop-opacity="1" stop-color="rgb(232,238,247)" offset="0%"/>
        <stop stop-opacity="1" stop-color="rgb(183,201,227)" offset="100%"/>
      </linearGradient>
      <clipPath clipPathUnits="userSpaceOnUse" id="clipPath1">
        <path d="M0 0 L911 0 L911 1104 L0 1104 L0 0 Z"/>
      </clipPath>
      <clipPath clipPathUnits="userSpaceOnUse" id="clipPath2">
        <path d="M246 35 L1157 35 L1157 1139 L246 1139 L246 35 Z"/>
      </clipPath>
    </defs>
    <g fill="white" text-rendering="geometricPrecision" shape-rendering="geometricPrecision" transform="translate(-246,-35)" stroke="white">
      <rect x="246" width="911" height="1104" y="35" clip-path="url(#clipPath2)" stroke="none"/>
    </g>
    <g fill="url(#linearGradient1)" text-rendering="geometricPrecision" shape-rendering="geometricPrecision" transform="matrix(1,0,0,1,-246,-35)" stroke="url(#linearGradient1)">
      <circle r="20" clip-path="url(#clipPath2)" cx="640" cy="70" stroke="none"/>
    </g>
    <g text-rendering="geometricPrecision" stroke-miterlimit="1.45" shape-rendering="geometricPrecision" transform="matrix(1,0,0,1,-246,-35)" stroke-linecap="butt">
      <circle fill="none" r="20" clip-path="url(#clipPath2)" cx="640" cy="70"/>
      <text x="626.1895" xml:space="preserve" y="74.1543" clip-path="url(#clipPath2)" font-family="sans-serif" stroke="none">Boot</text>
    </g>
    <g fill="url(#linearGradient2)" text-rendering="geometricPrecision" shape-rendering="geometricPrecision" transform="matrix(1,0,0,1,-246,-35)" stroke="url(#linearGradient2)">
      <path d="M640 129 L713 169 L640 209 L567 169 Z" stroke="none" clip-path="url(#clipPath2)"/>
    </g>
    <g text-rendering="geometricPrecision" stroke-miterlimit="1.45" shape-rendering="geometricPrecision" transform="matrix(1,0,0,1,-246,-35)" stroke-linecap="butt">
      <path fill="none" d="M640 129 L713 169 L640 209 L567 169 Z" clip-path="url(#clipPath2)"/>
      <text x="582.9062" xml:space="preserve" y="173.1543" clip-path="url(#clipPath2)" font-family="sans-serif" stroke="none">Test wakeup origin</text>
    </g>
    <g fill="url(#linearGradient3)" text-rendering="geometricPrecision" shape-rendering="geometricPrecision" transform="matrix(1,0,0,1,-246,-35)" stroke="url(#linearGradient3)">
      <rect x="701" y="205" clip-path="url(#clipPath2)" width="292" rx="23" ry="23" height="46" stroke="none"/>
    </g>
    <g text-rendering="geometricPrecision" stroke-miterlimit="1.45" shape-rendering="geometricPrecision" transform="matrix(1,0,0,1,-246,-35)" stroke-linecap="butt">
      <rect x="701" y="205" clip-path="url(#clipPath2)" fill="none" width="292" rx="23" ry="23" height="46"/>
      <text x="715.0879" xml:space="preserve" y="218.1855" clip-path="url(#clipPath2)" font-family="sans-serif" stroke="none">- Set pump counter at half of the max value</text>
      <text x="758.7871" xml:space="preserve" y="232.1543" clip-path="url(#clipPath2)" font-family="sans-serif" stroke="none">- Set nebulisator counter to 0</text>
      <text x="766.9551" xml:space="preserve" y="246.123" clip-path="url(#clipPath2)" font-family="sans-serif" stroke="none">- Reset postponed triggers</text>
    </g>
    <g fill="url(#linearGradient4)" text-rendering="geometricPrecision" shape-rendering="geometricPrecision" transform="matrix(1,0,0,1,-246,-35)" stroke="url(#linearGradient4)">
      <rect x="292" y="205" clip-path="url(#clipPath2)" width="270" rx="23" ry="23" height="46" stroke="none"/>
    </g>
    <g text-rendering="geometricPrecision" stroke-miterlimit="1.45" shape-rendering="geometricPrecision" transform="matrix(1,0,0,1,-246,-35)" stroke-linecap="butt">
      <rect x="292" y="205" clip-path="url(#clipPath2)" fill="none" width="270" rx="23" ry="23" height="46"/>
      <text x="332.0254" xml:space="preserve" y="225.1699" clip-path="url(#clipPath2)" font-family="sans-serif" stroke="none">- Load counters in RTC memory</text>
      <text x="306.4229" xml:space="preserve" y="239.1387" clip-path="url(#clipPath2)" font-family="sans-serif" stroke="none">- Decrement pump/nebulisator counters</text>
    </g>
    <g fill="url(#linearGradient5)" text-rendering="geometricPrecision" shape-rendering="geometricPrecision" transform="matrix(1,0,0,1,-246,-35)" stroke="url(#linearGradient5)">
      <rect x="579" y="290.0641" clip-path="url(#clipPath2)" width="122" rx="23" ry="23" height="46" stroke="none"/>
    </g>
    <g text-rendering="geometricPrecision" stroke-miterlimit="1.45" shape-rendering="geometricPrecision" transform="matrix(1,0,0,1,-246,-35)" stroke-linecap="butt">
      <rect x="579" y="290.0641" clip-path="url(#clipPath2)" fill="none" width="122" rx="23" ry="23" height="46"/>
      <text x="588.8652" xml:space="preserve" y="317.2184" clip-path="url(#clipPath2)" font-family="sans-serif" stroke="none">Get soil humidity</text>
    </g>
    <g fill="url(#linearGradient6)" text-rendering="geometricPrecision" shape-rendering="geometricPrecision" transform="matrix(1,0,0,1,-246,-35)" stroke="url(#linearGradient6)">
      <path d="M640 391.0641 L729 434.0641 L640 477.0641 L551 434.0641 Z" stroke="none" clip-path="url(#clipPath2)"/>
    </g>
    <g text-rendering="geometricPrecision" stroke-miterlimit="1.45" shape-rendering="geometricPrecision" transform="matrix(1,0,0,1,-246,-35)" stroke-linecap="butt">
      <path fill="none" d="M640 391.0641 L729 434.0641 L640 477.0641 L551 434.0641 Z" clip-path="url(#clipPath2)"/>
      <text x="566.5322" xml:space="preserve" y="438.2184" clip-path="url(#clipPath2)" font-family="sans-serif" stroke="none">Test nebulisator counter</text>
    </g>
    <g fill="url(#linearGradient7)" text-rendering="geometricPrecision" shape-rendering="geometricPrecision" transform="matrix(1,0,0,1,-246,-35)" stroke="url(#linearGradient7)">
      <rect x="776" y="473.7516" clip-path="url(#clipPath2)" width="142" rx="23" ry="23" height="46" stroke="none"/>
    </g>
    <g text-rendering="geometricPrecision" stroke-miterlimit="1.45" shape-rendering="geometricPrecision" transform="matrix(1,0,0,1,-246,-35)" stroke-linecap="butt">
      <rect x="776" y="473.7516" clip-path="url(#clipPath2)" fill="none" width="142" rx="23" ry="23" height="46"/>
      <text x="782.5879" xml:space="preserve" y="493.9215" clip-path="url(#clipPath2)" font-family="sans-serif" stroke="none">- Trigger nebulisators</text>
      <text x="800.9043" xml:space="preserve" y="507.8902" clip-path="url(#clipPath2)" font-family="sans-serif" stroke="none">- Reset counter</text>
    </g>
    <g fill="url(#linearGradient8)" text-rendering="geometricPrecision" shape-rendering="geometricPrecision" transform="matrix(1,0,0,1,-246,-35)" stroke="url(#linearGradient8)">
      <path d="M640 624.0961 L729 667.0961 L640 710.0961 L551 667.0961 Z" stroke="none" clip-path="url(#clipPath2)"/>
    </g>
    <g text-rendering="geometricPrecision" stroke-miterlimit="1.45" shape-rendering="geometricPrecision" transform="matrix(1,0,0,1,-246,-35)" stroke-linecap="butt">
      <path fill="none" d="M640 624.0961 L729 667.0961 L640 710.0961 L551 667.0961 Z" clip-path="url(#clipPath2)"/>
      <text x="566.5322" xml:space="preserve" y="671.2504" clip-path="url(#clipPath2)" font-family="sans-serif" stroke="none">Test nebulisator counter</text>
    </g>
    <g fill="url(#linearGradient9)" text-rendering="geometricPrecision" shape-rendering="geometricPrecision" transform="matrix(1,0,0,1,-246,-35)" stroke="url(#linearGradient9)">
      <circle r="20" clip-path="url(#clipPath2)" cx="640" cy="552.0641" stroke="none"/>
    </g>
    <g text-rendering="geometricPrecision" stroke-miterlimit="1.45" shape-rendering="geometricPrecision" transform="matrix(1,0,0,1,-246,-35)" stroke-linecap="butt">
      <circle fill="none" r="20" clip-path="url(#clipPath2)" cx="640" cy="552.0641"/>
    </g>
    <g fill="url(#linearGradient10)" text-rendering="geometricPrecision" shape-rendering="geometricPrecision" transform="matrix(1,0,0,1,-246,-35)" stroke="url(#linearGradient10)">
      <rect x="998" y="837.0961" clip-path="url(#clipPath2)" width="142" rx="23" ry="23" height="46" stroke="none"/>
    </g>
    <g text-rendering="geometricPrecision" stroke-miterlimit="1.45" shape-rendering="geometricPrecision" transform="matrix(1,0,0,1,-246,-35)" stroke-linecap="butt">
      <rect x="998" y="837.0961" clip-path="url(#clipPath2)" fill="none" width="142" rx="23" ry="23" height="46"/>
      <text x="1024.498" xml:space="preserve" y="857.266" clip-path="url(#clipPath2)" font-family="sans-serif" stroke="none">Postpone 1day</text>
      <text x="1009.2139" xml:space="preserve" y="871.2347" clip-path="url(#clipPath2)" font-family="sans-serif" stroke="none">- Increment counter</text>
    </g>
    <g fill="url(#linearGradient11)" text-rendering="geometricPrecision" shape-rendering="geometricPrecision" transform="matrix(1,0,0,1,-246,-35)" stroke="url(#linearGradient11)">
      <path d="M847 699.0961 L968 753.0961 L847 807.0961 L726 753.0961 Z" stroke="none" clip-path="url(#clipPath2)"/>
    </g>
    <g text-rendering="geometricPrecision" stroke-miterlimit="1.45" shape-rendering="geometricPrecision" transform="matrix(1,0,0,1,-246,-35)" stroke-linecap="butt">
      <path fill="none" d="M847 699.0961 L968 753.0961 L847 807.0961 L726 753.0961 Z" clip-path="url(#clipPath2)"/>
      <text x="773.5586" xml:space="preserve" y="743.2816" clip-path="url(#clipPath2)" font-family="sans-serif" stroke="none">Test humidity threshold </text>
      <text x="842.3213" xml:space="preserve" y="757.2504" clip-path="url(#clipPath2)" font-family="sans-serif" stroke="none">&amp;</text>
      <text x="794.0752" xml:space="preserve" y="771.2191" clip-path="url(#clipPath2)" font-family="sans-serif" stroke="none">postpone counter</text>
    </g>
    <g fill="url(#linearGradient12)" text-rendering="geometricPrecision" shape-rendering="geometricPrecision" transform="matrix(1,0,0,1,-246,-35)" stroke="url(#linearGradient12)">
      <rect x="757" y="837.0961" clip-path="url(#clipPath2)" width="180" rx="23" ry="23" height="46" stroke="none"/>
    </g>
    <g text-rendering="geometricPrecision" stroke-miterlimit="1.45" shape-rendering="geometricPrecision" transform="matrix(1,0,0,1,-246,-35)" stroke-linecap="butt">
      <rect x="757" y="837.0961" clip-path="url(#clipPath2)" fill="none" width="180" rx="23" ry="23" height="46"/>
      <text x="802.1816" xml:space="preserve" y="857.266" clip-path="url(#clipPath2)" font-family="sans-serif" stroke="none">- Trigger pump</text>
      <text x="766.8291" xml:space="preserve" y="871.2347" clip-path="url(#clipPath2)" font-family="sans-serif" stroke="none">- Reset counters to default</text>
    </g>
    <g fill="url(#linearGradient13)" text-rendering="geometricPrecision" shape-rendering="geometricPrecision" transform="matrix(1,0,0,1,-246,-35)" stroke="url(#linearGradient13)">
      <rect x="534" y="913.0961" clip-path="url(#clipPath2)" width="212" rx="20" ry="20" height="40" stroke="none"/>
    </g>
    <g text-rendering="geometricPrecision" stroke-miterlimit="1.45" shape-rendering="geometricPrecision" transform="matrix(1,0,0,1,-246,-35)" stroke-linecap="butt">
      <rect x="534" y="913.0961" clip-path="url(#clipPath2)" fill="none" width="212" rx="20" ry="20" height="40"/>
      <text x="548.8691" xml:space="preserve" y="937.2504" clip-path="url(#clipPath2)" font-family="sans-serif" stroke="none">Save counters in RTC memory</text>
    </g>
    <g fill="url(#linearGradient14)" text-rendering="geometricPrecision" shape-rendering="geometricPrecision" transform="matrix(1,0,0,1,-246,-35)" stroke="url(#linearGradient14)">
      <rect x="535.9375" y="998.3141" clip-path="url(#clipPath2)" width="208.125" rx="20" ry="20" height="40" stroke="none"/>
    </g>
    <g text-rendering="geometricPrecision" stroke-miterlimit="1.45" shape-rendering="geometricPrecision" transform="matrix(1,0,0,1,-246,-35)" stroke-linecap="butt">
      <rect x="535.9375" y="998.3141" clip-path="url(#clipPath2)" fill="none" width="208.125" rx="20" ry="20" height="40"/>
      <text x="553.2432" xml:space="preserve" y="1022.4684" clip-path="url(#clipPath2)" font-family="sans-serif" stroke="none">Log processing over network</text>
    </g>
    <g fill="url(#linearGradient15)" text-rendering="geometricPrecision" shape-rendering="geometricPrecision" transform="matrix(1,0,0,1,-246,-35)" stroke="url(#linearGradient15)">
      <rect x="557.8125" y="1083.532" clip-path="url(#clipPath2)" width="164.375" rx="20" ry="20" height="40" stroke="none"/>
    </g>
    <g text-rendering="geometricPrecision" stroke-miterlimit="1.45" shape-rendering="geometricPrecision" transform="matrix(1,0,0,1,-246,-35)" stroke-linecap="butt">
      <rect x="557.8125" y="1083.532" clip-path="url(#clipPath2)" fill="none" width="164.375" rx="20" ry="20" height="40"/>
      <text x="576.6719" xml:space="preserve" y="1107.6863" clip-path="url(#clipPath2)" font-family="sans-serif" stroke="none">Deepsleep for 1 hour</text>
    </g>
    <g text-rendering="geometricPrecision" stroke-miterlimit="1.45" shape-rendering="geometricPrecision" transform="matrix(1,0,0,1,-246,-35)" stroke-linecap="butt">
      <path fill="none" d="M640 89.9644 L640 120.9805" clip-path="url(#clipPath2)"/>
    </g>
    <g text-rendering="geometricPrecision" stroke-miterlimit="1.45" shape-rendering="geometricPrecision" transform="matrix(1,0,0,1,-246,-35)" stroke-linecap="butt">
      <path d="M640 128.9805 L645 116.9805 L640 119.9805 L635 116.9805 Z" stroke="none" clip-path="url(#clipPath2)"/>
      <rect x="638" y="95" clip-path="url(#clipPath2)" fill="white" width="4" height="4" stroke="none"/>
      <path fill="none" d="M713.0009 169 L837 169 L841.375 169.625 L844.5 171.5 L846.375 174.625 L847 179 L847 196.9819" clip-path="url(#clipPath2)"/>
      <path d="M847 204.9819 L852 192.9819 L847 195.9819 L842 192.9819 Z" clip-path="url(#clipPath2)" stroke="none"/>
      <rect x="718" y="160.0156" clip-path="url(#clipPath2)" fill="white" width="67.7031" height="17.9688" stroke="none"/>
      <text x="720" xml:space="preserve" y="173.1543" clip-path="url(#clipPath2)" font-family="sans-serif" stroke="none">Power loss</text>
      <path fill="none" d="M567.0153 169 L437 169 L432.625 169.625 L429.5 171.5 L427.625 174.625 L427 179 L427 196.9819" clip-path="url(#clipPath2)"/>
      <path d="M427 204.9819 L432 192.9819 L427 195.9819 L422 192.9819 Z" clip-path="url(#clipPath2)" stroke="none"/>
      <rect x="523.3301" y="160.0156" clip-path="url(#clipPath2)" fill="white" width="38.6699" height="17.9688" stroke="none"/>
      <text x="525.3301" xml:space="preserve" y="173.1543" clip-path="url(#clipPath2)" font-family="sans-serif" stroke="none">Timer</text>
      <path fill="none" d="M427 250.969 L427 303.0641 L427.625 307.4391 L429.5 310.5641 L432.625 312.4391 L437 313.0641 L570.9757 313.0641" clip-path="url(#clipPath2)"/>
      <path d="M578.9757 313.0641 L566.9757 308.0641 L569.9757 313.0641 L566.9757 318.0641 Z" clip-path="url(#clipPath2)" stroke="none"/>
      <rect x="425" y="256" clip-path="url(#clipPath2)" fill="white" width="4" height="4" stroke="none"/>
      <path fill="none" d="M847 250.969 L847 303.0641 L846.375 307.4391 L844.5 310.5641 L841.375 312.4391 L837 313.0641 L709.0236 313.0641" clip-path="url(#clipPath2)"/>
      <path d="M701.0236 313.0641 L713.0236 318.0641 L710.0236 313.0641 L713.0236 308.0641 Z" clip-path="url(#clipPath2)" stroke="none"/>
      <rect x="845" y="256" clip-path="url(#clipPath2)" fill="white" width="4" height="4" stroke="none"/>
      <path fill="none" d="M640 336.0765 L640 383.051" clip-path="url(#clipPath2)"/>
      <path d="M640 391.051 L645 379.051 L640 382.051 L635 379.051 Z" clip-path="url(#clipPath2)" stroke="none"/>
      <rect x="638" y="341.0641" clip-path="url(#clipPath2)" fill="white" width="4" height="4" stroke="none"/>
      <path fill="none" d="M729.0211 434.0641 L837 434.0641 L841.375 434.6891 L844.5 436.5641 L846.375 439.6891 L847 444.0641 L847 465.7641" clip-path="url(#clipPath2)"/>
      <path d="M847 473.7641 L852 461.7641 L847 464.7641 L842 461.7641 Z" clip-path="url(#clipPath2)" stroke="none"/>
      <rect x="734" y="425.0797" clip-path="url(#clipPath2)" fill="white" width="35.5586" height="17.9688" stroke="none"/>
      <text x="736" xml:space="preserve" y="438.2184" clip-path="url(#clipPath2)" font-family="sans-serif" stroke="none">&lt;= 0</text>
      <path fill="none" d="M847 519.7354 L847 542.0641 L846.375 546.4391 L844.5 549.5641 L841.375 551.4391 L837 552.0641 L667.9874 552.0641" clip-path="url(#clipPath2)"/>
      <path d="M659.9874 552.0641 L671.9874 557.0641 L668.9874 552.0641 L671.9874 547.0641 Z" clip-path="url(#clipPath2)" stroke="none"/>
      <rect x="845" y="524.7516" clip-path="url(#clipPath2)" fill="white" width="4" height="4" stroke="none"/>
      <path fill="none" d="M640 477.0753 L640 524.0353" clip-path="url(#clipPath2)"/>
      <path d="M640 532.0353 L645 520.0353 L640 523.0353 L635 520.0353 Z" clip-path="url(#clipPath2)" stroke="none"/>
      <rect x="627.248" y="482.0641" clip-path="url(#clipPath2)" fill="white" width="25.5039" height="17.9688" stroke="none"/>
      <text x="629.248" xml:space="preserve" y="495.2027" clip-path="url(#clipPath2)" font-family="sans-serif" stroke="none">&gt; 0</text>
      <path fill="none" d="M640 572.088 L640 616.0919" clip-path="url(#clipPath2)"/>
      <path d="M640 624.0919 L645 612.0919 L640 615.0919 L635 612.0919 Z" clip-path="url(#clipPath2)" stroke="none"/>
      <rect x="638" y="577.0641" clip-path="url(#clipPath2)" fill="white" width="4" height="4" stroke="none"/>
      <path fill="none" d="M729.0211 667.0961 L837 667.0961 L841.375 667.7211 L844.5 669.5961 L846.375 672.7211 L847 677.0961 L847 691.1361" clip-path="url(#clipPath2)"/>
      <path d="M847 699.1361 L852 687.1361 L847 690.1361 L842 687.1361 Z" clip-path="url(#clipPath2)" stroke="none"/>
      <rect x="734" y="658.1117" clip-path="url(#clipPath2)" fill="white" width="35.5586" height="17.9688" stroke="none"/>
      <text x="736" xml:space="preserve" y="671.2504" clip-path="url(#clipPath2)" font-family="sans-serif" stroke="none">&lt;= 0</text>
      <path fill="none" d="M967.9998 753.0961 L1059 753.0961 L1063.375 753.7211 L1066.5 755.5961 L1068.375 758.7211 L1069 763.0961 L1069 829.0817" clip-path="url(#clipPath2)"/>
      <path d="M1069 837.0817 L1074 825.0817 L1069 828.0817 L1064 825.0817 Z" clip-path="url(#clipPath2)" stroke="none"/>
      <rect x="996.3887" y="730.1947" clip-path="url(#clipPath2)" fill="white" width="145.2227" height="31.9375" stroke="none"/>
      <text x="1001.9131" xml:space="preserve" y="743.3334" clip-path="url(#clipPath2)" font-family="sans-serif" stroke="none">humidity &gt;= threshod</text>
      <text x="998.3887" xml:space="preserve" y="757.3022" clip-path="url(#clipPath2)" font-family="sans-serif" stroke="none">postpone counter &lt;= 5</text>
      <path fill="none" d="M847 807.0924 L847 829.0881" clip-path="url(#clipPath2)"/>
      <path d="M847 837.0881 L852 825.0881 L847 828.0881 L842 825.0881 Z" clip-path="url(#clipPath2)" stroke="none"/>
      <rect x="705.7373" y="812.0961" clip-path="url(#clipPath2)" fill="white" width="282.5254" height="17.9688" stroke="none"/>
      <text x="707.7373" xml:space="preserve" y="825.2347" clip-path="url(#clipPath2)" font-family="sans-serif" stroke="none">humidity &lt; threshold or postpone counter &gt; 5</text>
      <path fill="none" d="M640 710.1198 L640 905.0903" clip-path="url(#clipPath2)"/>
      <path d="M640 913.0903 L645 901.0903 L640 904.0903 L635 901.0903 Z" clip-path="url(#clipPath2)" stroke="none"/>
      <rect x="627.248" y="715.0961" clip-path="url(#clipPath2)" fill="white" width="25.5039" height="17.9688" stroke="none"/>
      <text x="629.248" xml:space="preserve" y="728.2347" clip-path="url(#clipPath2)" font-family="sans-serif" stroke="none">&gt; 0</text>
      <path fill="none" d="M847 883.0868 L847 923.0961 L846.375 927.4711 L844.5 930.5961 L841.375 932.4711 L837 933.0961 L754.0016 933.0961" clip-path="url(#clipPath2)"/>
      <path d="M746.0016 933.0961 L758.0016 938.0961 L755.0016 933.0961 L758.0016 928.0961 Z" clip-path="url(#clipPath2)" stroke="none"/>
      <rect x="845" y="888.0961" clip-path="url(#clipPath2)" fill="white" width="4" height="4" stroke="none"/>
      <path fill="none" d="M1069 883.0868 L1069 923.0961 L1068.375 927.4711 L1066.5 930.5961 L1063.375 932.4711 L1059 933.0961 L754.0193 933.0961" clip-path="url(#clipPath2)"/>
      <path d="M746.0193 933.0961 L758.0193 938.0961 L755.0193 933.0961 L758.0193 928.0961 Z" clip-path="url(#clipPath2)" stroke="none"/>
      <rect x="1067" y="888.0961" clip-path="url(#clipPath2)" fill="white" width="4" height="4" stroke="none"/>
      <path fill="none" d="M640 953.1107 L640 990.2882" clip-path="url(#clipPath2)"/>
      <path d="M640 998.2882 L645 986.2882 L640 989.2882 L635 986.2882 Z" clip-path="url(#clipPath2)" stroke="none"/>
      <rect x="638" y="958.0961" clip-path="url(#clipPath2)" fill="white" width="4" height="4" stroke="none"/>
      <path fill="none" d="M640 1038.3286 L640 1075.5062" clip-path="url(#clipPath2)"/>
      <path d="M640 1083.5062 L645 1071.5062 L640 1074.5062 L635 1071.5062 Z" clip-path="url(#clipPath2)" stroke="none"/>
      <rect x="638" y="1043.3141" clip-path="url(#clipPath2)" fill="white" width="4" height="4" stroke="none"/>
      <path fill="none" d="M557.7706 1103.532 L271.7726 1103.532 L267.3976 1102.907 L264.2726 1101.032 L262.3976 1097.907 L261.7726 1093.532 L261.7726 80 L262.3976 75.625 L264.2726 72.5 L267.3976 70.625 L271.7726 70 L612.0082 70" clip-path="url(#clipPath2)"/>
      <path d="M620.0082 70 L608.0082 65 L611.0082 70 L608.0082 75 Z" clip-path="url(#clipPath2)" stroke="none"/>
      <rect x="548.8125" y="1101.532" clip-path="url(#clipPath2)" fill="white" width="4" height="4" stroke="none"/>
    </g>
  </g>
</svg>
